<svg class="lg:hidden" width="34" height="32" viewBox="0 0 34 32" fill="none" xmlns="http://www.w3.org/2000/svg"><g clip-path="url(#clip0_2220_2099)"><path d="M22.6365 11.5099C19.8157 6.96254 14.1006 4.35106 8.81235 5.50795C7.37864 5.82158 6.02252 6.34494 4.75062 7.08237C3.50315 7.80596 2.42165 8.80176 1.51986 9.92392C1.0984 10.4487 1.85211 11.015 2.31042 10.5649C5.65371 7.28045 10.8121 5.96323 15.2111 7.65432C17.4441 8.51285 19.3861 10.0121 20.7265 11.9991C22.0998 14.0343 22.7984 16.451 23.1038 18.8721C23.3717 20.9926 23.342 23.1258 23.2223 25.2562C23.0484 24.8624 22.875 24.4679 22.7017 24.0746C21.9258 22.3139 21.1195 20.5081 20.077 18.891C19.8962 18.6108 19.4001 18.7907 19.4586 19.1267C19.7877 21.0216 20.4111 22.8901 21.031 24.7079C21.3414 25.6181 21.6518 26.5284 21.9628 27.4391C22.2811 28.371 22.5624 29.3271 22.9428 30.2349C23.2422 30.9497 24.362 31.2898 24.8594 30.5412C25.8164 29.1019 26.7382 27.6596 27.4476 26.0787C27.7788 25.341 28.0706 24.5857 28.3217 23.8178C28.4741 23.352 28.6193 22.8826 28.7253 22.4038C28.8391 21.8905 29.0183 21.3252 28.7776 20.8272C28.485 20.223 27.6328 19.7593 27.0199 20.2961C26.7184 20.5603 26.5368 20.8005 26.4325 21.192C26.3773 21.3991 26.332 21.609 26.2774 21.8165C26.1802 22.1842 26.0831 22.553 25.9848 22.9209C25.8917 23.2685 25.8186 23.5089 25.6853 23.9085C25.5598 24.2849 25.4238 24.6579 25.2796 25.0272C25.4551 20.3434 25.1663 15.5849 22.6387 11.5097L22.6365 11.5099Z" fill="#FF2020"></path></g><defs><clipPath id="clip0_2220_2099"><rect width="15.1885" height="31.1179" fill="white" transform="translate(0 11.7979) rotate(-50.9629)"></rect></clipPath></defs></svg>