<?xml version="1.0" encoding="UTF-8"?>
<svg id="Layer_1" xmlns="http://www.w3.org/2000/svg" version="1.1" xmlns:xlink="http://www.w3.org/1999/xlink" viewBox="0 0 34 32">
  <!-- Generator: Adobe Illustrator 29.1.0, SVG Export Plug-In . SVG Version: 2.1.0 Build 142)  -->
  <defs>
    <style>
      .st0 {
        fill: none;
      }

      .st1 {
        fill: #ff2020;
      }

      .st2 {
        clip-path: url(#clippath);
      }
    </style>
    <clipPath id="clippath">
      <polygon class="st0" points="32.5 10.6 22.4 -1.2 -2.9 18.4 7.1 30.2 32.5 10.6"/>
    </clipPath>
  </defs>
  <g class="st2">
    <path class="st1" d="M8.8,10.3c3-4.5,8.9-7.2,14.5-6,1.5.3,2.9.8,4.3,1.6,1.3.7,2.4,1.7,3.4,2.8.4.5-.3,1.1-.8.6-3.5-3.3-8.9-4.6-13.5-2.9-2.3.9-4.4,2.4-5.8,4.3-1.4,2-2.2,4.5-2.5,6.9-.3,2.1-.2,4.3-.1,6.4.2-.4.4-.8.5-1.2.8-1.8,1.7-3.6,2.7-5.2.2-.3.7-.1.6.2-.3,1.9-1,3.8-1.6,5.6-.3.9-.7,1.8-1,2.7-.3.9-.6,1.9-1,2.8-.3.7-1.5,1.1-2,.3-1-1.4-2-2.9-2.7-4.5-.3-.7-.7-1.5-.9-2.3-.2-.5-.3-.9-.4-1.4-.1-.5-.3-1.1,0-1.6.3-.6,1.2-1.1,1.8-.5.3.3.5.5.6.9,0,.2.1.4.2.6.1.4.2.7.3,1.1,0,.3.2.6.3,1,.1.4.3.7.4,1.1-.2-4.7.1-9.4,2.8-13.5h0Z"/>
  </g>
</svg>