<?xml version="1.0" encoding="UTF-8"?>
<svg id="Layer_1" xmlns="http://www.w3.org/2000/svg" version="1.1" viewBox="0 0 34 32">
  <!-- Generator: Adobe Illustrator 29.1.0, SVG Export Plug-In . SVG Version: 2.1.0 Build 142)  -->
  <path d="M10.7,8.4c-4.5,2.7-7.3,8.3-6.3,13.6.3,1.4.7,2.8,1.4,4.1.7,1.3,1.6,2.4,2.7,3.3.5.4,1.1-.3.7-.8-3.1-3.4-4.3-8.6-2.5-12.9.9-2.2,2.4-4.1,4.4-5.4,2-1.3,4.4-1.9,6.8-2.2,2.1-.2,4.2-.1,6.3,0-.4.2-.8.3-1.2.5-1.8.7-3.5,1.5-5.2,2.5-.3.2-.1.7.2.6,1.9-.3,3.7-.8,5.5-1.4.9-.3,1.8-.6,2.7-.8.9-.3,1.9-.5,2.8-.9.7-.3,1.1-1.4.4-1.9-1.4-1-2.8-1.9-4.3-2.7-.7-.3-1.4-.7-2.2-.9-.5-.2-.9-.3-1.4-.4-.5-.1-1-.3-1.5,0-.6.3-1.1,1.1-.6,1.7.3.3.5.5.9.6.2,0,.4.1.6.2.4.1.7.2,1.1.3.3.1.6.2,1,.3.4.1.7.3,1.1.4-4.6-.3-9.3-.2-13.3,2.2h0Z"/>
</svg>