<?xml version="1.0" encoding="UTF-8"?>
<svg id="Layer_2" data-name="Layer 2" xmlns="http://www.w3.org/2000/svg" xmlns:xlink="http://www.w3.org/1999/xlink" viewBox="0 0 374.69 335.21">
  <defs>
    <style>
      .cls-1, .cls-2, .cls-3, .cls-4 {
        fill: none;
      }

      .cls-5 {
        opacity: .2;
      }

      .cls-5, .cls-6, .cls-7, .cls-8, .cls-9, .cls-10, .cls-11 {
        isolation: isolate;
      }

      .cls-12 {
        fill: url(#linear-gradient-8);
      }

      .cls-13 {
        fill: url(#linear-gradient-7);
      }

      .cls-14 {
        fill: url(#linear-gradient-5);
      }

      .cls-15 {
        fill: url(#linear-gradient-6);
      }

      .cls-16 {
        fill: url(#linear-gradient-9);
      }

      .cls-17 {
        fill: url(#linear-gradient-3);
      }

      .cls-6 {
        fill: url(#linear-gradient-2);
      }

      .cls-7 {
        fill: url(#linear-gradient-4);
      }

      .cls-18, .cls-19 {
        fill: #263238;
      }

      .cls-20 {
        clip-path: url(#clippath-10);
      }

      .cls-21 {
        clip-path: url(#clippath-1);
      }

      .cls-22 {
        clip-path: url(#clippath-3);
      }

      .cls-23 {
        clip-path: url(#clippath-4);
      }

      .cls-24 {
        clip-path: url(#clippath-2);
      }

      .cls-25 {
        clip-path: url(#clippath-7);
      }

      .cls-26 {
        clip-path: url(#clippath-6);
      }

      .cls-27 {
        clip-path: url(#clippath-9);
      }

      .cls-28 {
        clip-path: url(#clippath-8);
      }

      .cls-29 {
        clip-path: url(#clippath-5);
      }

      .cls-2 {
        stroke: #fff;
        stroke-width: .75px;
      }

      .cls-2, .cls-30, .cls-3 {
        stroke-linejoin: round;
      }

      .cls-2, .cls-30, .cls-3, .cls-4, .cls-19, .cls-31 {
        stroke-linecap: round;
      }

      .cls-30, .cls-32, .cls-31, .cls-10, .cls-11 {
        fill: #fff;
      }

      .cls-30, .cls-3, .cls-4, .cls-19, .cls-31 {
        stroke: #263238;
      }

      .cls-4, .cls-19, .cls-31 {
        stroke-miterlimit: 10;
      }

      .cls-33 {
        fill: url(#linear-gradient-10);
      }

      .cls-34 {
        fill: url(#linear-gradient-11);
      }

      .cls-35 {
        fill: url(#linear-gradient-12);
      }

      .cls-36 {
        fill: url(#linear-gradient-13);
      }

      .cls-37 {
        fill: url(#linear-gradient-19);
      }

      .cls-38 {
        fill: url(#linear-gradient-14);
      }

      .cls-39 {
        fill: url(#linear-gradient-21);
      }

      .cls-40 {
        fill: url(#linear-gradient-20);
      }

      .cls-41 {
        fill: url(#linear-gradient-22);
      }

      .cls-42 {
        fill: url(#linear-gradient-23);
      }

      .cls-43 {
        fill: url(#linear-gradient-28);
      }

      .cls-44 {
        fill: url(#linear-gradient-25);
      }

      .cls-45 {
        fill: url(#linear-gradient-32);
      }

      .cls-46 {
        fill: url(#linear-gradient-31);
      }

      .cls-47 {
        fill: url(#linear-gradient-33);
      }

      .cls-48 {
        fill: url(#linear-gradient-30);
      }

      .cls-49 {
        fill: url(#linear-gradient-15);
      }

      .cls-50 {
        fill: url(#linear-gradient-16);
      }

      .cls-51 {
        fill: url(#linear-gradient-17);
      }

      .cls-52 {
        fill: url(#linear-gradient-18);
      }

      .cls-53 {
        fill: url(#linear-gradient-35);
      }

      .cls-54 {
        fill: url(#linear-gradient-34);
      }

      .cls-55 {
        fill: url(#linear-gradient-36);
      }

      .cls-56 {
        fill: url(#linear-gradient-27);
      }

      .cls-57 {
        fill: url(#linear-gradient-24);
      }

      .cls-58 {
        fill: url(#linear-gradient-26);
      }

      .cls-59 {
        fill: url(#linear-gradient-29);
      }

      .cls-9 {
        fill: url(#linear-gradient);
      }

      .cls-60 {
        clip-path: url(#clippath);
      }

      .cls-10 {
        opacity: .7;
      }

      .cls-11 {
        opacity: .5;
      }
    </style>
    <clipPath id="clippath">
      <path class="cls-1" d="M117.78,281.69c-10.27,6.72-21.85,24.65-27.64,31.93s-5.78,17.74-8.21,20.54c-2.43,2.8-10.83-5.79-9-12.14,1.83-6.35,5-7.65,4.3-10.64-.7-2.99-2.43-4.86-.56-8.78,1.87-3.92,7.28-.18,12.7-3.92s10.83-19.8,17.55-36.6,20.92-16.44,22.6-19.05,11.2-36.61,20.92-34.92c9.72,1.69,27.28,18.86,21.69,28.24s-12.14,9.16-20,14.57c-7.86,5.41-6.91,6.54-12.14,12.14-5.23,5.6-9,6.54-11.77,7.28,0,0-3.92,4.3-6.35,7.47-2.43,3.17-4.09,3.88-4.09,3.88Z"/>
    </clipPath>
    <clipPath id="clippath-1">
      <path class="cls-1" d="M116.36,282.69c-2.28-.14-4.51-.67-6.61-1.56-4.1-1.72-5.71-6.17-6.31-10.11-5.16,13.25-9.6,24.6-14,27.66-5.42,3.74-10.83,0-12.7,3.92-1.87,3.92-.19,5.79.56,8.78s-2.43,4.3-4.3,10.64,6.54,14.94,9,12.14,2.43-13.26,8.21-20.54c5.51-6.95,16.25-23.58,26.15-30.93Z"/>
    </clipPath>
    <linearGradient id="linear-gradient" x1="72.72" y1="302.85" x2="107.12" y2="302.85" gradientUnits="userSpaceOnUse">
      <stop offset="0" stop-color="#d91954"/>
      <stop offset="1" stop-color="#e13128"/>
    </linearGradient>
    <clipPath id="clippath-2">
      <path class="cls-1" d="M72.72,181.77s9.15,12.32,18.86,12.18,15.37-8.74,20.36-8.15c3.69.56,7.3,1.52,10.78,2.88,0,0,34.68-46.47,42.66-54.34s12.59-16.88,1.63-19.66c-10.96-2.78-33.85,2.15-45.33,12.24-11.48,10.09-47.86,50.24-47.86,50.24l-1.1,4.61Z"/>
    </clipPath>
    <linearGradient id="linear-gradient-2" x1="72.72" y1="153.93" x2="173.48" y2="153.93" xlink:href="#linear-gradient"/>
    <clipPath id="clippath-3">
      <path class="cls-1" d="M203.72,73.27s2.8-6.72,8.4-9.71c3.73-1.86,7.83-2.89,12-3l14.56-9s4.11-14.2,18.12-20c14.01-5.8,73.58-27.45,74.14-27.82s7.47-3.74,7.47-3.18c0,.96-.18,1.92-.56,2.8-.56,1.5-14.38,10.46-14.38,10.46,0,0,6.72-4.11,6.91-2s0,2.61-2.43,4.11-6.91,4.29-7.84,4.85c-.93.56-4.48,3.92-7.29,4.3s-9.89.93-10.45,1.49c-.56.56-18.87,18.3-24.84,23.35-5.97,5.05-15.69,9.71-15.69,9.71,0,0-13.07,14-23,21.29-9.93,7.29-16.62,9.15-16.62,9.15l-.75.74s.56,6.54.56,7.29,5.42,19.23,3,29.5-7.1,14.57-7.1,14.57c0,0-.74,12.14-3.73,16.62-2.99,4.48-11.21,9.9-17,14.2s-6.53,13.82-6.91,14.94c-.38,1.12-5,20.17-7.47,24.83-2.47,4.66-10,7.29-11.25,7.66-.68.2-7.64,10.76-14.34,10.24-8.96-.63-16.08-7.78-16.69-16.74-.11-1.85-.04-3.7.2-5.53,1.49-11.4,6-16.13,6-16.13,0,0,9.57-37.39,8.63-47.29s-1.12-16.06,1.68-21.66c2.8-5.6,11.95-14.19,26.15-20.36s15.87-10.27,15.87-17.36c.14-4.51,1.78-8.84,4.65-12.32Z"/>
    </clipPath>
    <linearGradient id="linear-gradient-3" x1="140.44" y1="206.35" x2="191.57" y2="206.35" xlink:href="#linear-gradient"/>
    <clipPath id="clippath-4">
      <path class="cls-1" d="M167.65,132.66s-11.39-1.68-20,5.6c-8.61,7.28-7.64,15.09-7.64,15.09,0,0-8.41,3.73-10.09,8-.98,2.52-1.65,5.16-2,7.84,0,0-4.48,4.3-8.22,8.59-3.74,4.29-6.91,5-7.66,10.65s-.37,19.42,3.74,33.05,6.91,19.61,8,22,10.83,14.75,12.51,15.13,3.36.74,4.67,0,11-3,10.65-5.79c-.07-1.49-.6-2.92-1.5-4.11l-.37-.56s1.68-3.18.56-4.67c-1.12-1.49-2.06-1.68-4.11-3.55s-3.17-2.43-5.6-2.43-5,.19-5,.19c0,0-3.74-1.5-3.74-12.33s3.36-20.17,5-25c.99-2.76,1.56-5.66,1.68-8.59,0,0,1.31,1.87,10.46-2.43,9.15-4.3,11.21-16.43,11.21-16.43l-13.48,2.14c6.6-.58,13.11-1.89,19.42-3.92,10.46-3.36,14.94-3.92,19-19.8l-17.49-18.67Z"/>
    </clipPath>
    <clipPath id="clippath-5">
      <path class="cls-1" d="M191.36,125.56c5.42-1.68,6.73-8.4,9.9-15.5,2.51-5.27,5.33-10.38,8.46-15.31-5.47.08-10.9-.81-16.06-2.62-8.41-3-18.31-.93-20.17,1.12-1.86,2.05-1.68-.56-1.31,5.79.37,6.35,2.8,15.5,5,18.68s3.55,5,3.55,5l10.63,2.84Z"/>
    </clipPath>
    <clipPath id="clippath-6">
      <path class="cls-1" d="M195.05,58.69c.53-.69,7.44,6.49,7.71,7.3.27.99.49,1.99.65,3,.06.38.28.72.6.94l4.83,3.31c.65.45.81,1.34.37,2l-1.68,2.42c-.3.42-.34.97-.12,1.43,1.35,2.9,6.13,13.2,5.81,14-.38.98-1.11,1.78-2.06,2.24-.93.37-18.11,6.16-20.17,6.35-1.58.14-5.38-6.35-7.06-9.37-.41-.69-1.31-.92-2-.51-1.46.84-3.25.89-4.76.13-3.74-1.69-8-4.86-6.17-8.41,1.83-3.55,4.86-3.73,6.17-2.8.87.62,2.41,1.92,3.34,2.7.46.4,1.12.46,1.65.16l.79-.46c.69-.38.95-1.25.57-1.94-.05-.09-.11-.18-.18-.26-.3-.38-.54-.81-.7-1.26,0,0,5.41-4.67,3.55-7.28s-6.91-6.54-6.35-8.59c.56-2.05,8-4.67,11.2-4.67,1.19-.04,3.62.09,4.01-.43Z"/>
    </clipPath>
    <clipPath id="clippath-7">
      <path class="cls-1" d="M196.97,255.73c-6.47,1.99-12.68,4.75-18.49,8.21-8.76,5.41-23.35,14.01-29.88,14.41s-8.59-1.68-12.51-3.17c-3.92-1.49-6,3.36-6,6.16s0,4.11-1.87,6.73c-1.87,2.62-6.7,12.28-6.7,12.28,0,0-2.62,10.46,0,10.83s4.29-3.17,9.71-7.65,14-14.2,21.66-14.94,41.84-4.3,56-11,13.26-4.86,17.37-8,2.61-9.15.56-13.26c-1.09-2.32-2.69-4.37-4.67-6l-25.18,5.4Z"/>
    </clipPath>
    <clipPath id="clippath-8">
      <path class="cls-1" d="M227.63,258.35s-4.45-17.39-34.21-42.54c-20-16.92-28.95-20.54-40.34-10.46s-9.15,16.63-5,23,20.91,18.49,34.73,24.66,27.83,14.75,35.67,14l9.15-8.66Z"/>
    </clipPath>
    <clipPath id="clippath-9">
      <path class="cls-1" d="M181.84,274.78c-1.89-4.17-1.43-8.86-.52-12.48-.95.52-1.9,1.06-2.84,1.64-8.76,5.41-23.35,14.01-29.88,14.41s-8.59-1.68-12.51-3.17c-3.92-1.49-6,3.36-6,6.16s0,4.11-1.87,6.73c-1.87,2.62-6.7,12.28-6.7,12.28,0,0-2.62,10.46,0,10.83s4.29-3.17,9.71-7.65,14-14.2,21.66-14.94c12.81-1.22,25.56-3.09,38.18-5.61-4.04-1.41-7.36-4.36-9.23-8.2Z"/>
    </clipPath>
    <linearGradient id="linear-gradient-4" x1="120.36" y1="286.76" x2="191.07" y2="286.76" xlink:href="#linear-gradient"/>
    <clipPath id="clippath-10">
      <path class="cls-1" d="M149.72,248.26s1.68-3.18.56-4.67-2.06-1.68-4.11-3.55c-2.05-1.87-3.17-2.43-5.6-2.43s-5,.19-5,.19c0,0-3.74-1.5-3.74-12.33.1-6.69,1.2-13.32,3.26-19.68-3.27,1.94-6.94,3.11-10.73,3.44-4.62.5-9.18-1.41-12.06-5.05.61,5.88,1.75,11.7,3.42,17.37,4.11,13.63,6.91,19.61,8,22,1.09,2.39,10.83,14.75,12.51,15.13,1.68.38,3.36.74,4.67,0s11-3,10.65-5.79c-.07-1.49-.6-2.92-1.5-4.11l-.33-.52Z"/>
    </clipPath>
    <linearGradient id="linear-gradient-5" x1="263.36" y1="68.43" x2="295.56" y2="68.43" xlink:href="#linear-gradient"/>
    <linearGradient id="linear-gradient-6" x1="255.12" y1="88.82" x2="260.34" y2="88.82" xlink:href="#linear-gradient"/>
    <linearGradient id="linear-gradient-7" x1="56.65" y1="247.47" x2="62.27" y2="247.47" xlink:href="#linear-gradient"/>
    <linearGradient id="linear-gradient-8" x1="66.79" y1="223.2" x2="103.85" y2="223.2" xlink:href="#linear-gradient"/>
    <linearGradient id="linear-gradient-9" x1="135" y1="315.78" x2="138.72" y2="315.78" xlink:href="#linear-gradient"/>
    <linearGradient id="linear-gradient-10" x1="142.48" y1="301.36" x2="161.94" y2="301.36" xlink:href="#linear-gradient"/>
    <linearGradient id="linear-gradient-11" x1="0" y1="263.98" x2="4.49" y2="263.98" xlink:href="#linear-gradient"/>
    <linearGradient id="linear-gradient-12" x1="10.51" y1="239.01" x2="47.21" y2="239.01" xlink:href="#linear-gradient"/>
    <linearGradient id="linear-gradient-13" x1="106.75" y1="121.11" x2="112.38" y2="121.11" xlink:href="#linear-gradient"/>
    <linearGradient id="linear-gradient-14" x1="117.26" y1="96.68" x2="153.96" y2="96.68" xlink:href="#linear-gradient"/>
    <linearGradient id="linear-gradient-15" x1="240.37" y1="90.71" x2="287.58" y2="90.71" xlink:href="#linear-gradient"/>
    <linearGradient id="linear-gradient-16" x1="228.31" y1="172.87" x2="239.19" y2="172.87" xlink:href="#linear-gradient"/>
    <linearGradient id="linear-gradient-17" x1="240.06" y1="173.24" x2="247.08" y2="173.24" xlink:href="#linear-gradient"/>
    <linearGradient id="linear-gradient-18" x1="248.63" y1="174.61" x2="257.61" y2="174.61" xlink:href="#linear-gradient"/>
    <linearGradient id="linear-gradient-19" x1="260.13" y1="174.47" x2="266.41" y2="174.47" xlink:href="#linear-gradient"/>
    <linearGradient id="linear-gradient-20" x1="267.09" y1="173.24" x2="274.11" y2="173.24" xlink:href="#linear-gradient"/>
    <linearGradient id="linear-gradient-21" x1="276.05" y1="174.75" x2="285.26" y2="174.75" xlink:href="#linear-gradient"/>
    <linearGradient id="linear-gradient-22" x1="287.97" y1="176.8" x2="297.79" y2="176.8" xlink:href="#linear-gradient"/>
    <linearGradient id="linear-gradient-23" x1="303.79" y1="172.87" x2="314.58" y2="172.87" xlink:href="#linear-gradient"/>
    <linearGradient id="linear-gradient-24" x1="316.71" y1="174.61" x2="326.59" y2="174.61" xlink:href="#linear-gradient"/>
    <linearGradient id="linear-gradient-25" x1="327.49" y1="174.6" x2="341.82" y2="174.6" xlink:href="#linear-gradient"/>
    <linearGradient id="linear-gradient-26" x1="342.79" y1="174.61" x2="351.53" y2="174.61" xlink:href="#linear-gradient"/>
    <linearGradient id="linear-gradient-27" x1="228.41" y1="195.34" x2="239.89" y2="195.34" xlink:href="#linear-gradient"/>
    <linearGradient id="linear-gradient-28" x1="242.21" y1="195.19" x2="244.85" y2="195.19" xlink:href="#linear-gradient"/>
    <linearGradient id="linear-gradient-29" x1="247.76" y1="196.96" x2="263.1" y2="196.96" xlink:href="#linear-gradient"/>
    <linearGradient id="linear-gradient-30" x1="265.61" y1="199.26" x2="275.8" y2="199.26" xlink:href="#linear-gradient"/>
    <linearGradient id="linear-gradient-31" x1="277.93" y1="195.19" x2="280.57" y2="195.19" xlink:href="#linear-gradient"/>
    <linearGradient id="linear-gradient-32" x1="283.47" y1="195.19" x2="286.11" y2="195.19" xlink:href="#linear-gradient"/>
    <linearGradient id="linear-gradient-33" x1="287.86" y1="195.18" x2="295.46" y2="195.18" xlink:href="#linear-gradient"/>
    <linearGradient id="linear-gradient-34" x1="297.49" y1="195.19" x2="300.13" y2="195.19" xlink:href="#linear-gradient"/>
    <linearGradient id="linear-gradient-35" x1="302.46" y1="197.08" x2="312.69" y2="197.08" xlink:href="#linear-gradient"/>
    <linearGradient id="linear-gradient-36" x1="314.25" y1="195.48" x2="324.43" y2="195.48" xlink:href="#linear-gradient"/>
  </defs>
  <g id="Layer_1-2" data-name="Layer 1">
    <g>
      <g id="freepik--background-simple--inject-4">
        <path class="cls-32" d="M367.19,118.68c-17.2-51.64-62.19-95.08-116.4-107.93-61.26-14.53-127.09,9.14-177.24,44-18.3,12.72-35.37,27.82-48.61,45.84-45.22,61.62,30.78,94.34,28.87,125.13s-51,37.52-13.48,79.86,155.88,32.71,248.25-16.36c30.5-16.2,59.78-38.73,74.38-70.92,14.87-32.83,14.83-67.78,4.23-99.62Z"/>
        <path class="cls-10" d="M367.19,118.68c-17.2-51.64-62.19-95.08-116.4-107.93-61.26-14.53-127.09,9.14-177.24,44-18.3,12.72-35.37,27.82-48.61,45.84-45.22,61.62,30.78,94.34,28.87,125.13s-51,37.52-13.48,79.86,155.88,32.71,248.25-16.36c30.5-16.2,59.78-38.73,74.38-70.92,14.87-32.83,14.83-67.78,4.23-99.62Z"/>
      </g>
      <g id="freepik--Character--inject-4">
        <path class="cls-32" d="M117.78,281.69c-10.27,6.72-21.85,24.65-27.64,31.93s-5.78,17.74-8.21,20.54-10.83-5.79-9-12.14,5-7.65,4.3-10.64-2.43-4.86-.56-8.78,7.28-.18,12.7-3.92,10.83-19.8,17.55-36.6,20.92-16.44,22.6-19.05,11.2-36.61,20.92-34.92,27.28,18.86,21.69,28.24-12.14,9.16-20,14.57-6.91,6.54-12.14,12.14-9,6.54-11.77,7.28c0,0-3.92,4.3-6.35,7.47s-4.09,3.88-4.09,3.88Z"/>
        <g class="cls-60">
          <g>
            <path class="cls-32" d="M99.07,291.85c3.23-6.06,12.93-20.62,23-29.51s42.05-22.24,42.05-22.24l6.22-1.24c.63-.82,1.22-1.67,1.75-2.56,5.6-9.33-11.95-26.51-21.66-28.19s-19.24,32.3-20.92,34.92-15.87,2.24-22.6,19.05-12.14,32.87-17.55,36.6-10.83,0-12.7,3.92-.19,5.79.56,8.78-2.43,4.3-4.3,10.64,6.54,14.94,9,12.14c.92-1.42,1.55-3.01,1.85-4.68-1.54-4.15-1.98-8.63-1.29-13,1.24-10.07,13.35-18.56,16.59-24.63Z"/>
            <path class="cls-11" d="M99.07,291.85c3.23-6.06,12.93-20.62,23-29.51s42.05-22.24,42.05-22.24l6.22-1.24c.63-.82,1.22-1.67,1.75-2.56,5.6-9.33-11.95-26.51-21.66-28.19s-19.24,32.3-20.92,34.92-15.87,2.24-22.6,19.05-12.14,32.87-17.55,36.6-10.83,0-12.7,3.92-.19,5.79.56,8.78-2.43,4.3-4.3,10.64,6.54,14.94,9,12.14c.92-1.42,1.55-3.01,1.85-4.68-1.54-4.15-1.98-8.63-1.29-13,1.24-10.07,13.35-18.56,16.59-24.63Z"/>
          </g>
        </g>
        <path class="cls-4" d="M117.78,281.69c-10.27,6.72-21.85,24.65-27.64,31.93s-5.78,17.74-8.21,20.54-10.83-5.79-9-12.14,5-7.65,4.3-10.64-2.43-4.86-.56-8.78,7.28-.18,12.7-3.92,10.83-19.8,17.55-36.6,20.92-16.44,22.6-19.05,11.2-36.61,20.92-34.92,27.28,18.86,21.69,28.24-12.14,9.16-20,14.57-6.91,6.54-12.14,12.14-9,6.54-11.77,7.28c0,0-3.92,4.3-6.35,7.47s-4.09,3.88-4.09,3.88Z"/>
        <path class="cls-32" d="M116.36,282.69c-2.28-.14-4.51-.67-6.61-1.56-4.1-1.72-5.71-6.17-6.31-10.11-5.16,13.25-9.6,24.6-14,27.66-5.42,3.74-10.83,0-12.7,3.92s-.19,5.79.56,8.78-2.43,4.3-4.3,10.64,6.54,14.94,9,12.14,2.43-13.26,8.21-20.54c5.51-6.95,16.25-23.58,26.15-30.93Z"/>
        <g class="cls-21">
          <g class="cls-8">
            <path class="cls-9" d="M81.93,334.16c.14-.17.27-.35.38-.54l.09-.15c.11-.2.22-.42.33-.67,0,0,0-.09.05-.13.09-.22.18-.45.26-.69.03-.08.06-.15.08-.23.1-.28.19-.57.28-.87l.09-.32c.06-.23.13-.47.2-.72l.09-.36h0c-1.54-4.15-1.98-8.63-1.29-13,1.21-10.11,13.34-18.6,16.58-24.67,2.42-4.32,5.1-8.48,8.05-12.46-2.21-2.16-3.23-5.4-3.68-8.36l-.88,2.24-.14.38-.88,2.24h0l-.83,2.1-.14.35c-.27.68-.54,1.35-.81,2l-.14.35c-.27.67-.54,1.33-.81,2h0l-.8,1.88-.15.35c-.26.6-.52,1.18-.78,1.75l-.12.28-.73,1.58-.08.17c-.26.54-.51,1.06-.76,1.56-.05.11-.11.21-.16.3-.25.5-.5,1-.75,1.45l-.09.17-.71,1.25-.11.19c-.25.42-.49.81-.74,1.19l-.15.22c-.25.38-.5.73-.74,1.06l-.07.08c-.23.31-.47.6-.7.87l-.13.15c-.24.28-.49.52-.73.75l-.14.13c-.24.22-.49.42-.75.6-1.48,1.02-3.21,1.63-5,1.78-1,.1-1.86.1-2.71.11-.78-.01-1.56.03-2.34.14-1.17.1-2.19.82-2.68,1.89-.5.98-.79,2.07-.85,3.17-.01.36,0,.72.06,1.07.02.17.05.34.09.5.28,1.33.89,2.55,1.26,4,.08.34.12.7.11,1.05-.08,1.34-1,2.47-2,4.22-1.03,1.68-1.83,3.48-2.38,5.37-.43,1.65-.33,3.4.27,5,.44,1.25,1.06,2.43,1.82,3.51.25.36.51.7.78,1,2.16,2.68,4.87,4.12,6.08,2.72Z"/>
          </g>
        </g>
        <path class="cls-4" d="M116.36,282.69c-2.28-.14-4.51-.67-6.61-1.56-4.1-1.72-5.71-6.17-6.31-10.11-5.16,13.25-9.6,24.6-14,27.66-5.42,3.74-10.83,0-12.7,3.92s-.19,5.79.56,8.78-2.43,4.3-4.3,10.64,6.54,14.94,9,12.14,2.43-13.26,8.21-20.54c5.51-6.95,16.25-23.58,26.15-30.93Z"/>
        <path class="cls-32" d="M72.72,181.77s9.15,12.32,18.86,12.18,15.37-8.74,20.36-8.15c3.69.56,7.3,1.52,10.78,2.88,0,0,34.68-46.47,42.66-54.34s12.59-16.88,1.63-19.66-33.85,2.15-45.33,12.24-47.86,50.24-47.86,50.24l-1.1,4.61Z"/>
        <g class="cls-24">
          <path class="cls-6" d="M72.72,181.77s9.15,12.32,18.86,12.18,15.37-8.74,20.36-8.15c3.69.56,7.3,1.52,10.78,2.88,0,0,34.68-46.47,42.66-54.34s12.59-16.88,1.63-19.66-33.85,2.15-45.33,12.24-47.86,50.24-47.86,50.24l-1.1,4.61Z"/>
        </g>
        <path class="cls-4" d="M72.72,181.77s9.15,12.32,18.86,12.18,15.37-8.74,20.36-8.15c3.69.56,7.3,1.52,10.78,2.88,0,0,34.68-46.47,42.66-54.34s12.59-16.88,1.63-19.66-33.85,2.15-45.33,12.24-47.86,50.24-47.86,50.24l-1.1,4.61Z"/>
        <path class="cls-32" d="M203.72,73.27s2.8-6.72,8.4-9.71c3.73-1.86,7.83-2.89,12-3l14.56-9s4.11-14.2,18.12-20S330.38,4.11,330.94,3.74s7.47-3.74,7.47-3.18c0,.96-.18,1.92-.56,2.8-.56,1.5-14.38,10.46-14.38,10.46,0,0,6.72-4.11,6.91-2s0,2.61-2.43,4.11-6.91,4.29-7.84,4.85-4.48,3.92-7.29,4.3-9.89.93-10.45,1.49-18.87,18.3-24.84,23.35-15.69,9.71-15.69,9.71c0,0-13.07,14-23,21.29s-16.62,9.15-16.62,9.15l-.75.74s.56,6.54.56,7.29,5.42,19.23,3,29.5-7.1,14.57-7.1,14.57c0,0-.74,12.14-3.73,16.62s-11.21,9.9-17,14.2-6.53,13.82-6.91,14.94-5,20.17-7.47,24.83-10,7.29-11.25,7.66c-.68.2-7.64,10.76-14.34,10.24-8.96-.63-16.08-7.78-16.69-16.74-.11-1.85-.04-3.7.2-5.53,1.49-11.4,6-16.13,6-16.13,0,0,9.57-37.39,8.63-47.29s-1.12-16.06,1.68-21.66,11.95-14.19,26.15-20.36,15.87-10.27,15.87-17.36c.14-4.51,1.78-8.84,4.65-12.32Z"/>
        <g class="cls-22">
          <g>
            <path class="cls-32" d="M224.51,109.97l-.11-.05s-.81,12.13-2.83,20.22-10.51,13.34-10.51,13.34l-4.45,12.13s-10.11,9.29-16.58,9.29-7.31-5.25-7.31-5.25c-6.09-5.18-19.3-8.75-27.87-6.73-1.34,10.59-5.07,26.61-7,34.55,3.61,1.93,9.4,3.75,17.89,2.91,8.77-.96,17.34-3.28,25.39-6.89.85-3.4,2.5-7.9,6-10.49l1.95-1.43c-5.86,2.44-13.3,10.39-18.77,11.12-6.07.81-8.09-.4-7.68-2.83s8.82-.89,11.72-2,.41-1.61-5.66-2.42-4.85-3.24-4.85-3.24c0,0,9.85.82,11.72,0s15-4,21-9.3,6.52-16.55,6.52-16.55l4.66-2.33c.1-1.11.14-1.8.14-1.8,0,0,4.67-4.29,7.1-14.57,1.17-4.98.52-11.82-.47-17.68Z"/>
            <path class="cls-32" d="M273.87,45.68c-11.68,5.06-14,3.5-14,3.5,1.01.73,1.96,1.54,2.84,2.43,1.69,1.64-.51,6.91-6.74,11.59s-26.48,17.15-29.98,17.15-3.5-11.67-3.5-11.67c-1.47,7.24-1.77,14.67-.88,22l.57-.56s6.72-1.87,16.62-9.15,23-21.29,23-21.29c0,0,9.71-4.67,15.69-9.71,3.28-2.77,10.27-9.37,16-14.85-6.29,3.97-12.85,7.49-19.62,10.56Z"/>
            <path class="cls-11" d="M273.87,45.68c-11.68,5.06-14,3.5-14,3.5,1.01.73,1.96,1.54,2.84,2.43,1.69,1.64-.51,6.91-6.74,11.59s-26.48,17.15-29.98,17.15-3.5-11.67-3.5-11.67c-1.47,7.24-1.77,14.67-.88,22l.57-.56s6.72-1.87,16.62-9.15,23-21.29,23-21.29c0,0,9.71-4.67,15.69-9.71,3.28-2.77,10.27-9.37,16-14.85-6.29,3.97-12.85,7.49-19.62,10.56Z"/>
            <path class="cls-11" d="M224.51,109.97l-.11-.05s-.81,12.13-2.83,20.22-10.51,13.34-10.51,13.34l-4.45,12.13s-10.11,9.29-16.58,9.29-7.31-5.25-7.31-5.25c-6.09-5.18-19.3-8.75-27.87-6.73-1.34,10.59-5.07,26.61-7,34.55,3.61,1.93,9.4,3.75,17.89,2.91,8.77-.96,17.34-3.28,25.39-6.89.85-3.4,2.5-7.9,6-10.49l1.95-1.43c-5.86,2.44-13.3,10.39-18.77,11.12-6.07.81-8.09-.4-7.68-2.83s8.82-.89,11.72-2,.41-1.61-5.66-2.42-4.85-3.24-4.85-3.24c0,0,9.85.82,11.72,0s15-4,21-9.3,6.52-16.55,6.52-16.55l4.66-2.33c.1-1.11.14-1.8.14-1.8,0,0,4.67-4.29,7.1-14.57,1.17-4.98.52-11.82-.47-17.68Z"/>
          </g>
        </g>
        <path class="cls-4" d="M203.72,73.27s2.8-6.72,8.4-9.71c3.73-1.86,7.83-2.89,12-3l14.56-9s4.11-14.2,18.12-20S330.38,4.11,330.94,3.74s7.47-3.74,7.47-3.18c0,.96-.18,1.92-.56,2.8-.56,1.5-14.38,10.46-14.38,10.46,0,0,6.72-4.11,6.91-2s0,2.61-2.43,4.11-6.91,4.29-7.84,4.85-4.48,3.92-7.29,4.3-9.89.93-10.45,1.49-18.87,18.3-24.84,23.35-15.69,9.71-15.69,9.71c0,0-13.07,14-23,21.29s-16.62,9.15-16.62,9.15l-.75.74s.56,6.54.56,7.29,5.42,19.23,3,29.5-7.1,14.57-7.1,14.57c0,0-.74,12.14-3.73,16.62s-11.21,9.9-17,14.2-6.53,13.82-6.91,14.94-5,20.17-7.47,24.83-10,7.29-11.25,7.66c-.68.2-7.64,10.76-14.34,10.24-8.96-.63-16.08-7.78-16.69-16.74-.11-1.85-.04-3.7.2-5.53,1.49-11.4,6-16.13,6-16.13,0,0,9.57-37.39,8.63-47.29s-1.12-16.06,1.68-21.66,11.95-14.19,26.15-20.36,15.87-10.27,15.87-17.36c.14-4.51,1.78-8.84,4.65-12.32Z"/>
        <ellipse class="cls-32" cx="207.98" cy="135.47" rx="15.62" ry="10" transform="translate(28.48 306.89) rotate(-76.76)"/>
        <path class="cls-3" d="M183.72,173c-10.09,2.24-14-2.62-14-2.62,0,0,1.12,7.47,11.77,8.59"/>
        <path class="cls-4" d="M207.43,127.99s5.79,14,1.12,24.65-11.4,14.71-24.09,16.81"/>
        <path class="cls-4" d="M195.29,173.18s-7.66,6.91-13.64,9.15-10.64,6.17-15.68-.56"/>
        <path class="cls-3" d="M255.42,51.79s4.67-3.17,7.28-.18-.93,8-.93,8"/>
        <path class="cls-3" d="M222.93,65.61c-1.01,5-1.75,10.05-2.21,15.13-.26,3.38-.01,6.78.74,10.08"/>
        <line class="cls-4" x1="178.95" y1="133.51" x2="190.14" y2="127.57"/>
        <path class="cls-30" d="M330.87,3.8c-.5.33-47.81,17.55-68,25.4,1.82.08,11.36.88,13.89,9.15,1.11,3.53,1.63,7.21,1.52,10.91,6.64-5.77,23.53-22.14,24.07-22.68s7.65-1.12,10.45-1.49,6.35-3.74,7.29-4.3,5.41-3.36,7.84-4.85,2.62-2.06,2.43-4.11-6.91,2-6.91,2c0,0,13.82-9,14.38-10.46.38-.88.57-1.84.56-2.8-.05-.51-6.96,2.85-7.52,3.23Z"/>
        <line class="cls-3" x1="323.4" y1="13.88" x2="316.86" y2="17.24"/>
        <path class="cls-17" d="M191.57,182c-2.09.81-4.73,1.9-7.25,3.11-7,3.37-14.54,5.45-22.28,6.14-6.08.51-11.25-2.21-14.08-4.13-.77,3.16-1.27,5.15-1.27,5.15,0,0-4.51,4.73-6,16.13-.24,1.83-.31,3.68-.2,5.53.61,8.96,7.73,16.11,16.69,16.74,6.7.52,13.66-10,14.34-10.24,1.3-.37,8.83-3,11.25-7.66s7.1-23.71,7.47-24.83c.18-.54.48-3.03,1.33-5.94Z"/>
        <path class="cls-2" d="M151.52,197.78s8-3.45,16.08-.58"/>
        <path class="cls-31" d="M168.4,187.96c-10.31,1.16-16.28-2.61-19.31-5.59-.69,3-1.29,5.44-1.73,7.19,5.28,3.29,11.52,4.7,17.71,4,11.12-1.37,21.21-5.92,25.68-8.18h0c.04-.23.09-.47.15-.72h0c.15-.73.35-1.52.59-2.36,0-.05,0-.1.05-.16.08-.26.16-.53.25-.8,0-.04,0-.08,0-.12.31-.92.67-1.83,1.09-2.71-7.24,5.15-15.66,8.4-24.48,9.45Z"/>
        <path class="cls-31" d="M137.08,122.35s-1.81.92,4.72-3.37,4.56,1.92,9-9.1,9.34-19.23,17.37-22.22,31.75,1.31,31.75,1.31l5.6,3.92-7.8,15.12c-3.8-1.87-8.22-2.01-12.13-.38-6.35,2.8-9.72,6.16-9,9.15s6.72,11.21,6.72,11.21c0,0-28.28-11.11-32.76-8.69s-18.13,7.38-18.88,7.76,5.41-4.71,5.41-4.71Z"/>
        <path class="cls-4" d="M154.49,113.6c.95-1.39,2-3,3.07-4.85,4.86-8.21,14.57-11.76,14.57-11.76"/>
        <path class="cls-4" d="M172.84,105.96c-5.29,1.3-9.85,4.66-12.66,9.33"/>
        <path class="cls-32" d="M167.65,132.66s-11.39-1.68-20,5.6-7.64,15.09-7.64,15.09c0,0-8.41,3.73-10.09,8-.98,2.52-1.65,5.16-2,7.84,0,0-4.48,4.3-8.22,8.59s-6.91,5-7.66,10.65-.37,19.42,3.74,33.05,6.91,19.61,8,22,10.83,14.75,12.51,15.13,3.36.74,4.67,0,11-3,10.65-5.79c-.07-1.49-.6-2.92-1.5-4.11l-.37-.56s1.68-3.18.56-4.67-2.06-1.68-4.11-3.55-3.17-2.43-5.6-2.43-5,.19-5,.19c0,0-3.74-1.5-3.74-12.33s3.36-20.17,5-25c.99-2.76,1.56-5.66,1.68-8.59,0,0,1.31,1.87,10.46-2.43s11.21-16.43,11.21-16.43l-13.48,2.14c6.6-.58,13.11-1.89,19.42-3.92,10.46-3.36,14.94-3.92,19-19.8"/>
        <g class="cls-23">
          <g>
            <path class="cls-32" d="M149.89,167.28c-1.92-2.57,9-10,11.89-12.85s-9.32,4.82-12.21,5.46-5.46-1.29-3.85-10.28c1.16-5.65,3.9-10.85,7.91-15-2.17.9-4.2,2.13-6,3.64-8.59,7.28-7.65,15.13-7.65,15.13,0,0-8.41,3.73-10.09,8-.98,2.52-1.65,5.16-2,7.84,0,0-4.48,4.3-8.22,8.59s-6.91,5-7.66,10.65-.37,19.42,3.74,33.05,6.91,19.61,8,22,10.83,14.75,12.51,15.13,3.36.74,4.67,0,11-3,10.65-5.79c-.08-.68-.22-1.35-.41-2-3.58.45-10.13,2.74-11.89,2.74-1.92,0-3.85-2.89-6.74-6.11s-7.39-11.56-8-21.84,3.85-19.92,3.85-24.74-5.78,6.43-4.5,1.61,6.43-11.89,10.28-13.82,8.36-3.21,10-6.42-5.78-1-3.21-3.54,19.28-5.84,24.74-9-13.88.12-15.81-2.45Z"/>
            <path class="cls-11" d="M149.89,167.28c-1.92-2.57,9-10,11.89-12.85s-9.32,4.82-12.21,5.46-5.46-1.29-3.85-10.28c1.16-5.65,3.9-10.85,7.91-15-2.17.9-4.2,2.13-6,3.64-8.59,7.28-7.65,15.13-7.65,15.13,0,0-8.41,3.73-10.09,8-.98,2.52-1.65,5.16-2,7.84,0,0-4.48,4.3-8.22,8.59s-6.91,5-7.66,10.65-.37,19.42,3.74,33.05,6.91,19.61,8,22,10.83,14.75,12.51,15.13,3.36.74,4.67,0,11-3,10.65-5.79c-.08-.68-.22-1.35-.41-2-3.58.45-10.13,2.74-11.89,2.74-1.92,0-3.85-2.89-6.74-6.11s-7.39-11.56-8-21.84,3.85-19.92,3.85-24.74-5.78,6.43-4.5,1.61,6.43-11.89,10.28-13.82,8.36-3.21,10-6.42-5.78-1-3.21-3.54,19.28-5.84,24.74-9-13.88.12-15.81-2.45Z"/>
          </g>
        </g>
        <path class="cls-4" d="M167.65,132.66s-11.39-1.68-20,5.6-7.64,15.09-7.64,15.09c0,0-8.41,3.73-10.09,8-.98,2.52-1.65,5.16-2,7.84,0,0-4.48,4.3-8.22,8.59s-6.91,5-7.66,10.65-.37,19.42,3.74,33.05,6.91,19.61,8,22,10.83,14.75,12.51,15.13,3.36.74,4.67,0,11-3,10.65-5.79c-.07-1.49-.6-2.92-1.5-4.11l-.37-.56s1.68-3.18.56-4.67-2.06-1.68-4.11-3.55-3.17-2.43-5.6-2.43-5,.19-5,.19c0,0-3.74-1.5-3.74-12.33s3.36-20.17,5-25c.99-2.76,1.56-5.66,1.68-8.59,0,0,1.31,1.87,10.46-2.43s11.21-16.43,11.21-16.43l-13.48,2.14c6.6-.58,13.11-1.89,19.42-3.92,10.46-3.36,14.94-3.92,19-19.8"/>
        <line class="cls-3" x1="138.51" y1="191.86" x2="137.44" y2="183.29"/>
        <path class="cls-32" d="M191.36,125.56c5.42-1.68,6.73-8.4,9.9-15.5,2.51-5.27,5.33-10.38,8.46-15.31-5.47.08-10.9-.81-16.06-2.62-8.41-3-18.31-.93-20.17,1.12s-1.68-.56-1.31,5.79,2.8,15.5,5,18.68,3.55,5,3.55,5"/>
        <g class="cls-29">
          <g>
            <path class="cls-32" d="M207.32,94.73c-4.67-.19-9.29-1.06-13.71-2.6-8.41-3-18.31-.93-20.17,1.12s-1.68-.56-1.31,5.79,2.8,15.5,5,18.68l.8,1.12,29.85-23.88-.46-.23Z"/>
            <path class="cls-11" d="M207.32,94.73c-4.67-.19-9.29-1.06-13.71-2.6-8.41-3-18.31-.93-20.17,1.12s-1.68-.56-1.31,5.79,2.8,15.5,5,18.68l.8,1.12,29.85-23.88-.46-.23Z"/>
          </g>
        </g>
        <path class="cls-4" d="M191.36,125.56c5.42-1.68,6.73-8.4,9.9-15.5,2.51-5.27,5.33-10.38,8.46-15.31-5.47.08-10.9-.81-16.06-2.62-8.41-3-18.31-.93-20.17,1.12s-1.68-.56-1.31,5.79,2.8,15.5,5,18.68,3.55,5,3.55,5"/>
        <path class="cls-4" d="M190.06,114.54c3.32.03,6.62-.38,9.83-1.21.43-1.07.88-2.16,1.37-3.27,2.51-5.27,5.33-10.38,8.46-15.31-5.47.08-10.9-.81-16.06-2.62-8.41-3-18.31-.93-20.17,1.12s-1.68-.56-1.31,5.79c.27,3.65.91,7.26,1.89,10.79,3.02,2.52,7.97,4.63,15.99,4.71Z"/>
        <line class="cls-3" x1="191.82" y1="122.6" x2="187.32" y2="102.79"/>
        <path class="cls-19" d="M197.03,57.51c.54-2.21.93-4.45,1.18-6.71.38-3.55-8.15-9.84-16.93-9.09s-5.6,9.34-6.72,12.14-9.53-.19-11.77,4.85,1.68,6.54,1.68,8-6.91,5.42-6,14.2,16.06,17.36,19.42,18.11,7.47-2.43,7.47-5,5.6-3.55,7.1-6-2.43-10.83-2.25-12.7,6-9.33,4.11-11.2,2.71-6.6,2.71-6.6Z"/>
        <path class="cls-2" d="M188.09,59.61s2.9-.32,2.9-6.75-9.32-4.82-10.61-2.25-.32,7.39-3.53,8.68-8.36,1.28-8.36,3.85v3.54"/>
        <path class="cls-2" d="M179.72,64.75s-11.89-.64-18,10.28"/>
        <path class="cls-2" d="M181.35,67.64s-8,.32-12.21,5.78"/>
        <path class="cls-32" d="M195.05,58.69c.53-.69,7.44,6.49,7.71,7.3.27.99.49,1.99.65,3,.06.38.28.72.6.94l4.83,3.31c.65.45.81,1.34.37,2l-1.68,2.42c-.3.42-.34.97-.12,1.43,1.35,2.9,6.13,13.2,5.81,14-.38.98-1.11,1.78-2.06,2.24-.93.37-18.11,6.16-20.17,6.35-1.58.14-5.38-6.35-7.06-9.37-.41-.69-1.31-.92-2-.51-1.46.84-3.25.89-4.76.13-3.74-1.69-8-4.86-6.17-8.41s4.86-3.73,6.17-2.8c.87.62,2.41,1.92,3.34,2.7.46.4,1.12.46,1.65.16l.79-.46c.69-.38.95-1.25.57-1.94-.05-.09-.11-.18-.18-.26h0c-.3-.38-.54-.81-.7-1.26,0,0,5.41-4.67,3.55-7.28s-6.91-6.54-6.35-8.59,8-4.67,11.2-4.67c1.19-.04,3.62.09,4.01-.43Z"/>
        <g class="cls-26">
          <g>
            <path class="cls-32" d="M186.14,72.35c1.86,2.61-3.55,7.28-3.55,7.28.16.45.4.88.7,1.26h0c.52.59.46,1.5-.13,2.02-.08.07-.17.13-.26.18l-.79.46c-.53.3-1.19.24-1.65-.16-.93-.78-2.47-2.08-3.34-2.7-1.31-.93-4.3-.75-6.17,2.8s2.43,6.72,6.17,8.41c1.51.76,3.3.71,4.76-.13.69-.41,1.59-.18,2,.51,1.68,3,5.48,9.51,7.06,9.37,2.06-.19,19.24-6,20.17-6.35.95-.46,1.68-1.26,2.06-2.24,0,0-7.42,3.51-11.46-.13s-9.3-8.89-10.92-11.32,1.75-7.8-1.62-12.94-9.43-4.93-9.43-4.93c-.51,2.06,4.53,5.98,6.4,8.61Z"/>
            <path class="cls-11" d="M186.14,72.35c1.86,2.61-3.55,7.28-3.55,7.28.16.45.4.88.7,1.26h0c.52.59.46,1.5-.13,2.02-.08.07-.17.13-.26.18l-.79.46c-.53.3-1.19.24-1.65-.16-.93-.78-2.47-2.08-3.34-2.7-1.31-.93-4.3-.75-6.17,2.8s2.43,6.72,6.17,8.41c1.51.76,3.3.71,4.76-.13.69-.41,1.59-.18,2,.51,1.68,3,5.48,9.51,7.06,9.37,2.06-.19,19.24-6,20.17-6.35.95-.46,1.68-1.26,2.06-2.24,0,0-7.42,3.51-11.46-.13s-9.3-8.89-10.92-11.32,1.75-7.8-1.62-12.94-9.43-4.93-9.43-4.93c-.51,2.06,4.53,5.98,6.4,8.61Z"/>
          </g>
        </g>
        <path class="cls-4" d="M195.05,58.69c.53-.69,7.44,6.49,7.71,7.3.27.99.49,1.99.65,3,.06.38.28.72.6.94l4.83,3.31c.65.45.81,1.34.37,2l-1.68,2.42c-.3.42-.34.97-.12,1.43,1.35,2.9,6.13,13.2,5.81,14-.38.98-1.11,1.78-2.06,2.24-.93.37-18.11,6.16-20.17,6.35-1.58.14-5.38-6.35-7.06-9.37-.41-.69-1.31-.92-2-.51-1.46.84-3.25.89-4.76.13-3.74-1.69-8-4.86-6.17-8.41s4.86-3.73,6.17-2.8c.87.62,2.41,1.92,3.34,2.7.46.4,1.12.46,1.65.16l.79-.46c.69-.38.95-1.25.57-1.94-.05-.09-.11-.18-.18-.26h0c-.3-.38-.54-.81-.7-1.26,0,0,5.41-4.67,3.55-7.28s-6.91-6.54-6.35-8.59,8-4.67,11.2-4.67c1.19-.04,3.62.09,4.01-.43Z"/>
        <path class="cls-18" d="M200.29,68.69s-4,0-5.13.57-2.57,4.56-2.57,4.56l3.71-2.28,4.27-.85,1.14-3.13-1.42,1.13Z"/>
        <polyline class="cls-31" points="200.57 72.68 197.15 74.39 200.57 74.39"/>
        <path class="cls-32" d="M196.97,255.73c-6.47,1.99-12.68,4.75-18.49,8.21-8.76,5.41-23.35,14.01-29.88,14.41s-8.59-1.68-12.51-3.17-6,3.36-6,6.16,0,4.11-1.87,6.73-6.7,12.28-6.7,12.28c0,0-2.62,10.46,0,10.83s4.29-3.17,9.71-7.65,14-14.2,21.66-14.94,41.84-4.3,56-11,13.26-4.86,17.37-8,2.61-9.15.56-13.26c-1.09-2.32-2.69-4.37-4.67-6"/>
        <g class="cls-25">
          <g>
            <path class="cls-32" d="M217.33,273.81c-1.68-.3-3-.74-3-1.36,0-1.62,4.85-1.62,7.28-4.85s-.41-6.47-3.64-10.11c-1.24-1.39-2.77-3.38-4.42-5.32l-16.54,3.56c-6.47,1.99-12.68,4.75-18.49,8.21-8.8,5.41-23.39,14.01-29.92,14.41s-8.59-1.68-12.51-3.17-6,3.36-6,6.16,0,4.11-1.87,6.73-6.7,12.28-6.7,12.28c0,0-2.62,10.46,0,10.83s4.29-3.17,9.71-7.65,14-14.2,21.66-14.94,41.84-4.3,56-11c3.76-1.78,6.43-2.95,8.44-3.78Z"/>
            <path class="cls-11" d="M217.33,273.81c-1.68-.3-3-.74-3-1.36,0-1.62,4.85-1.62,7.28-4.85s-.41-6.47-3.64-10.11c-1.24-1.39-2.77-3.38-4.42-5.32l-16.54,3.56c-6.47,1.99-12.68,4.75-18.49,8.21-8.8,5.41-23.39,14.01-29.92,14.41s-8.59-1.68-12.51-3.17-6,3.36-6,6.16,0,4.11-1.87,6.73-6.7,12.28-6.7,12.28c0,0-2.62,10.46,0,10.83s4.29-3.17,9.71-7.65,14-14.2,21.66-14.94,41.84-4.3,56-11c3.76-1.78,6.43-2.95,8.44-3.78Z"/>
          </g>
        </g>
        <path class="cls-4" d="M196.97,255.73c-6.47,1.99-12.68,4.75-18.49,8.21-8.76,5.41-23.35,14.01-29.88,14.41s-8.59-1.68-12.51-3.17-6,3.36-6,6.16,0,4.11-1.87,6.73-6.7,12.28-6.7,12.28c0,0-2.62,10.46,0,10.83s4.29-3.17,9.71-7.65,14-14.2,21.66-14.94,41.84-4.3,56-11,13.26-4.86,17.37-8,2.61-9.15.56-13.26c-1.09-2.32-2.69-4.37-4.67-6"/>
        <path class="cls-32" d="M227.63,258.35s-4.45-17.39-34.21-42.54c-20-16.92-28.95-20.54-40.34-10.46s-9.15,16.63-5,23,20.91,18.49,34.73,24.66,27.83,14.75,35.67,14"/>
        <g class="cls-28">
          <g>
            <path class="cls-32" d="M205.4,245.76c-4.05-.4,3.23,7.69-5.26,5.66s-38-27.08-44.07-35.17c-5-6.66-.67-12.21,1-14-1.42.89-2.75,1.89-4,3-11.39,10.09-9.15,16.62-5,23s20.91,18.49,34.73,24.66,27.83,14.75,35.67,14l3.73-3.5c-.67-1.9-2.39-3.85-4.24-5.94-3.24-3.62-8.52-11.3-12.56-11.71Z"/>
            <path class="cls-11" d="M205.4,245.76c-4.05-.4,3.23,7.69-5.26,5.66s-38-27.08-44.07-35.17c-5-6.66-.67-12.21,1-14-1.42.89-2.75,1.89-4,3-11.39,10.09-9.15,16.62-5,23s20.91,18.49,34.73,24.66,27.83,14.75,35.67,14l3.73-3.5c-.67-1.9-2.39-3.85-4.24-5.94-3.24-3.62-8.52-11.3-12.56-11.71Z"/>
          </g>
        </g>
        <path class="cls-4" d="M227.63,258.35s-4.45-17.39-34.21-42.54c-20-16.92-28.95-20.54-40.34-10.46s-9.15,16.63-5,23,20.91,18.49,34.73,24.66,27.83,14.75,35.67,14"/>
        <path class="cls-32" d="M181.84,274.78c-1.89-4.17-1.43-8.86-.52-12.48-.95.52-1.9,1.06-2.84,1.64-8.76,5.41-23.35,14.01-29.88,14.41s-8.59-1.68-12.51-3.17-6,3.36-6,6.16,0,4.11-1.87,6.73-6.7,12.28-6.7,12.28c0,0-2.62,10.46,0,10.83s4.29-3.17,9.71-7.65,14-14.2,21.66-14.94c12.81-1.22,25.56-3.09,38.18-5.61-4.04-1.41-7.36-4.36-9.23-8.2Z"/>
        <g class="cls-27">
          <path class="cls-7" d="M181.84,274.78c-1.89-4.17-1.43-8.86-.52-12.48-.95.52-1.9,1.06-2.84,1.64-8.76,5.41-23.35,14.01-29.88,14.41s-8.59-1.68-12.51-3.17-6,3.36-6,6.16,0,4.11-1.87,6.73-6.7,12.28-6.7,12.28c0,0-2.62,10.46,0,10.83s4.29-3.17,9.71-7.65,14-14.2,21.66-14.94c12.81-1.22,25.56-3.09,38.18-5.61-4.04-1.41-7.36-4.36-9.23-8.2Z"/>
        </g>
        <path class="cls-3" d="M181.84,274.78c-1.89-4.17-1.43-8.86-.52-12.48-.95.52-1.9,1.06-2.84,1.64-8.76,5.41-23.35,14.01-29.88,14.41s-8.59-1.68-12.51-3.17-6,3.36-6,6.16,0,4.11-1.87,6.73-6.7,12.28-6.7,12.28c0,0-2.62,10.46,0,10.83s4.29-3.17,9.71-7.65,14-14.2,21.66-14.94c12.81-1.22,25.56-3.09,38.18-5.61-4.04-1.41-7.36-4.36-9.23-8.2Z"/>
        <path class="cls-3" d="M149.43,225.78s40.85,26.14,52.83,30.5,9.26-3.82,9.26-3.82"/>
        <path class="cls-3" d="M185.92,276.97s11.44,1.09,19.06-6"/>
        <path class="cls-31" d="M183.41,130.59s-14.48-9.47-31.24-7.47-36.66,19.14-49.56,33.8-70.25,94.62-70.25,94.62l-1.78-13.07c-.83-6.16.79-12.39,4.53-17.36l9.11-12.13s.91-14.92,9-22.58c5.37-5.02,11.21-9.53,17.43-13.45,2.09-1.44,23-22.39,37.75-37.37s32.65-25.71,48.87-21.17,22.72,8,26.5,11.34,3.91,3,3.91,3l-4.27,1.84Z"/>
        <line class="cls-4" x1="85.11" y1="166.13" x2="88.48" y2="162.34"/>
        <line class="cls-4" x1="44.22" y1="208.98" x2="83.72" y2="167.43"/>
        <path class="cls-4" d="M140.27,120.9c-1.06.42-2.12.89-3.19,1.44"/>
        <path class="cls-4" d="M185.23,130.18s-20.43-16.43-41.8-10.34"/>
        <path class="cls-32" d="M149.72,248.26s1.68-3.18.56-4.67-2.06-1.68-4.11-3.55-3.17-2.43-5.6-2.43-5,.19-5,.19c0,0-3.74-1.5-3.74-12.33.1-6.69,1.2-13.32,3.26-19.68-3.27,1.94-6.94,3.11-10.73,3.44-4.62.5-9.18-1.41-12.06-5.05.61,5.88,1.75,11.7,3.42,17.37,4.11,13.63,6.91,19.61,8,22s10.83,14.75,12.51,15.13,3.36.74,4.67,0,11-3,10.65-5.79c-.07-1.49-.6-2.92-1.5-4.11l-.33-.52Z"/>
        <g class="cls-20">
          <g>
            <path class="cls-5" d="M151.59,252.93h0c0-.3-.09-.57-.14-.82v-.24c0-.08-.08-.36-.12-.52s-.08-.27-.11-.39c-3.58.45-10.13,2.74-11.89,2.74-1.92,0-3.85-2.89-6.74-6.11s-7.39-11.56-8-21.84c-.39-6.16,1.07-12.08,2.3-16.89-.8.16-1.62.28-2.5.37-4.62.5-9.18-1.41-12.06-5.05,0,.26.06.53.09.79.05.46.11.92.17,1.4,0,.31.09.64.13,1s.13.86.19,1.3.11.67.16,1,.15.88.23,1.32l.18,1,.24,1.36.21,1c.1.47.21.95.32,1.43.07.32.14.64.22.95.13.54.27,1.08.41,1.61.06.27.13.54.2.8.22.81.45,1.62.69,2.42,4.11,13.63,6.91,19.61,8,22,.09.19.19.38.31.56.2.34.46.75.78,1.22.53.78,1.21,1.71,2,2.73l.47.61c3.32,4.37,7.88,9.76,9,10,1.68.37,3.36.74,4.67,0,.49-.23.99-.42,1.5-.58l.77-.25c3.2-1.04,8.6-2.82,8.32-4.92Z"/>
            <path class="cls-3" d="M148.65,244.93l-2.35,1.95s1.74-.12,3.79,1.94"/>
          </g>
        </g>
        <path class="cls-3" d="M149.72,248.26s1.68-3.18.56-4.67-2.06-1.68-4.11-3.55-3.17-2.43-5.6-2.43-5,.19-5,.19c0,0-3.74-1.5-3.74-12.33.1-6.69,1.2-13.32,3.26-19.68-3.27,1.94-6.94,3.11-10.73,3.44-4.62.5-9.18-1.41-12.06-5.05.61,5.88,1.75,11.7,3.42,17.37,4.11,13.63,6.91,19.61,8,22s10.83,14.75,12.51,15.13,3.36.74,4.67,0,11-3,10.65-5.79c-.07-1.49-.6-2.92-1.5-4.11l-.33-.52Z"/>
      </g>
      <g id="freepik--speed-lines--inject-4">
        <line class="cls-14" x1="295.56" y1="53.31" x2="263.36" y2="83.54"/>
        <line class="cls-15" x1="260.34" y1="86.37" x2="255.12" y2="91.27"/>
        <line class="cls-13" x1="62.27" y1="244.83" x2="56.65" y2="250.11"/>
        <line class="cls-12" x1="103.85" y1="205.81" x2="66.79" y2="240.59"/>
        <line class="cls-16" x1="138.72" y1="314.03" x2="135" y2="317.52"/>
        <line class="cls-33" x1="161.94" y1="292.23" x2="142.48" y2="310.49"/>
        <line class="cls-34" x1="4.49" y1="261.87" y2="266.09"/>
        <line class="cls-35" x1="47.21" y1="221.79" x2="10.51" y2="256.23"/>
        <line class="cls-36" x1="112.38" y1="118.47" x2="106.75" y2="123.75"/>
        <line class="cls-38" x1="153.96" y1="79.45" x2="117.26" y2="113.9"/>
        <line class="cls-49" x1="287.58" y1="68.56" x2="240.37" y2="112.86"/>
      </g>
      <g id="freepik--Clouds--inject-4">
        <path class="cls-32" d="M356.93,174.2c-6.81-3.71-9.9-.62-12.37-3.71s6.8-11.14-11.76-19.14c0,0-1.24-17.33-26.61-18s-18.56,17.33-25.37,21.66-8.66-2.48-15.47,1.86-3.71,13-9.28,14.23c-5.57,1.23-13-5.57-19.8-1.24s-6.81,8-9.9,8-9.28-2.47-13,0-8.05,5.57-8.05,5.57h156.56s1.84-5.52-4.95-9.23Z"/>
        <path class="cls-32" d="M130.12,74.06c-2.63-1.43-3.82-.24-4.78-1.43s2.63-4.3-4.53-7.4c0,0-.48-6.69-10.27-6.93s-7.16,6.69-9.79,8.36-3.34-1-6,.71-1.43,5-3.58,5.5-5-2.15-7.64-.48-2.63,3.1-3.82,3.1-3.58-.95-5,0-3.1,2.15-3.1,2.15h60.41s.7-2.15-1.9-3.58Z"/>
      </g>
      <g>
        <path class="cls-50" d="M237.35,169.86c-.37-.87-.83-1.57-1.63-2.06-.54-.33-1.3-.56-2.04-.56-.72-.02-1.44.14-1.96.43-.64.37-1.05,1.03-1.05,1.69,0,.43.16.85.46,1.14.39.41,1.11.7,1.86.93l2.48.72c1.07.31,1.88.7,2.54,1.34.72.7,1.16,1.67,1.16,2.68,0,1.16-.64,2.37-1.65,3.06-.99.7-2.29.91-3.63.91-1.82,0-3.24-.52-4.38-1.82-.64-.72-1.03-1.67-1.22-2.48l1.75-.48c.16.66.37,1.26.87,1.86.68.83,1.86,1.28,3.04,1.28.89,0,1.94-.23,2.56-.68.58-.43.81-1.09.81-1.71,0-.52-.19-1.01-.58-1.38-.43-.41-.99-.68-1.69-.87l-2.56-.76c-.95-.29-1.88-.64-2.6-1.3-.74-.64-1.07-1.63-1.07-2.5,0-1.34.89-2.56,2.06-3.14.91-.46,1.88-.56,2.79-.56.97,0,2.04.21,2.89.72,1.14.66,2,1.75,2.48,3.08l-1.73.46Z"/>
        <path class="cls-51" d="M243.92,175.82c0,.85-.06,1.44.21,1.88.23.46.72.7,1.22.74.54.06,1.18.02,1.73-.08v1.49c-.72.19-1.76.19-2.46.1-.93-.16-1.59-.52-2.06-1.34-.45-.76-.37-1.63-.37-2.71v-5.1h-2.13v-1.42h2.13v-2.91h1.73v2.91h3.16v1.42h-3.16v5.02Z"/>
        <path class="cls-52" d="M256.08,179.85v-1.59c-.97,1.38-2.25,1.88-4,1.88-2.04,0-3.45-1.24-3.45-3.18,0-1.34.54-2.27,1.84-2.93,1.3-.64,3.38-.81,5.39-1.12-.06-1.45-1.09-2.17-2.54-2.17-1.09,0-2.09.27-2.95,1.28l-1.09-1.16c1.09-1.24,2.48-1.76,4.21-1.76,1.07,0,2.13.41,2.83,1.03.97.81,1.28,2.08,1.28,3.33v6.4h-1.53ZM255.88,174.32c-1.45.23-2.64.43-3.37.6-1.18.25-2.15.87-2.15,1.88,0,1.11.87,1.82,2.06,1.82,1.38,0,2.48-.58,3.06-1.63.41-.74.41-1.53.41-2.68Z"/>
        <path class="cls-37" d="M266.41,169.32v1.63c-.46-.17-1.03-.27-1.63-.23-.81.02-1.51.31-1.98.78-.87.81-.93,1.88-.93,3.22v5.14h-1.75v-10.47h1.55v1.53c.23-.39.52-.72.93-1.03.66-.52,1.49-.78,2.31-.79.5-.02,1.01.06,1.49.23Z"/>
        <path class="cls-40" d="M270.95,175.82c0,.85-.06,1.44.21,1.88.23.46.72.7,1.22.74.54.06,1.18.02,1.73-.08v1.49c-.72.19-1.76.19-2.46.1-.93-.16-1.59-.52-2.06-1.34-.45-.76-.37-1.63-.37-2.71v-5.1h-2.13v-1.42h2.13v-2.91h1.73v2.91h3.16v1.42h-3.16v5.02Z"/>
        <path class="cls-39" d="M285.26,169.38v10.47h-1.55v-1.36c-.12.16-.25.33-.41.48-.7.74-1.71,1.09-2.64,1.12-1.09.08-2.19-.12-3.1-.89-1.38-1.11-1.53-2.95-1.51-4.75v-5.08h1.75v5.02c0,1.47.17,2.77,1.11,3.51.5.41,1.16.6,1.92.56.64-.02,1.22-.23,1.67-.62.46-.39.78-.99.91-1.67.1-.41.12-.93.12-1.46v-5.35h1.75Z"/>
        <path class="cls-41" d="M297.79,174.59c0,1.38-.29,2.75-1.16,3.86-.87,1.09-2.21,1.69-3.63,1.69-1.3,0-2.46-.43-3.28-1.28v5.64h-1.75v-15.13h1.55v1.18c.85-.95,2.13-1.47,3.47-1.47,1.44,0,2.77.58,3.63,1.67.83,1.07,1.16,2.46,1.16,3.84ZM295.94,174.59c0-1.05-.19-2.06-.74-2.77-.56-.79-1.45-1.16-2.48-1.16-.95,0-1.82.35-2.39,1.07-.58.74-.81,1.8-.81,2.87s.23,2.17.81,2.89,1.47,1.07,2.44,1.07,1.88-.37,2.44-1.16c.54-.72.72-1.75.72-2.79Z"/>
        <path class="cls-42" d="M312.83,176.79v-10.9h1.75v13.96h-1.75l-7.29-10.92v10.92h-1.75v-13.96h1.75l7.29,10.9Z"/>
        <path class="cls-57" d="M319.29,177.37c.56.74,1.49,1.12,2.46,1.12.72,0,1.36-.16,1.88-.52.5-.35.87-.78,1.12-1.32l1.67.58c-.41.93-1.09,1.69-1.88,2.17-.79.49-1.76.74-2.71.74-1.51,0-3.01-.6-3.92-1.73-.85-1.09-1.2-2.42-1.2-3.74,0-1.42.35-2.81,1.2-3.88.93-1.14,2.33-1.71,3.84-1.71s2.77.52,3.7,1.65c.93,1.16,1.2,2.71,1.12,4.36h-8.01c.04.83.25,1.63.72,2.27ZM319.31,171.74c-.43.56-.62,1.2-.7,1.92h6.21c-.06-.76-.21-1.42-.64-1.96-.54-.72-1.47-1.09-2.42-1.07-.93-.02-1.84.33-2.44,1.11Z"/>
        <path class="cls-44" d="M341.82,169.38l-3.2,10.47h-1.51l-2.44-7.97-2.54,7.97h-1.44l-3.2-10.49,1.73.02,2.35,7.66,2.35-7.66h1.51l2.35,7.66,2.35-7.66h1.71Z"/>
        <path class="cls-58" d="M349.85,172.52c-.5-1.3-1.55-1.88-2.83-1.9-1.16-.04-2.31.48-2.31,1.34,0,.78.62,1.07,1.57,1.32.56.17,1.2.35,2.09.58,1.8.49,3.16,1.51,3.16,3.16,0,.93-.54,1.9-1.38,2.4-.83.56-1.82.72-2.83.72-1.3,0-2.44-.31-3.39-1.24-.6-.6-.95-1.28-1.14-1.92l1.57-.47c.17.49.43.95.79,1.3.56.54,1.36.78,2.17.78.64,0,1.51-.16,1.96-.46.41-.27.62-.66.62-1.12,0-.93-.93-1.24-1.98-1.55-1.24-.35-1.73-.49-2.29-.66-.64-.23-1.36-.5-1.86-1.03-.48-.46-.68-1.2-.68-1.75,0-1.14.76-2.09,1.75-2.54.78-.33,1.53-.41,2.25-.39.74,0,1.51.16,2.21.5,1.01.5,1.86,1.51,2.19,2.52l-1.65.41Z"/>
      </g>
      <g>
        <path class="cls-56" d="M237.07,192.62c-.35-.7-.64-1.18-1.3-1.57-.45-.27-1.01-.5-1.65-.5-.66-.02-1.28.14-1.69.39-.48.29-.72.74-.72,1.16,0,.25.1.49.27.66.25.27.89.52,1.59.74l2.42.7c1.24.37,1.96.74,2.58,1.32.83.8,1.3,1.82,1.3,2.97,0,1.22-.7,2.5-1.8,3.24-1.07.72-2.35.89-3.82.89-1.86,0-3.45-.49-4.6-1.88-.68-.83-1.05-1.8-1.26-2.72l2.68-.72c.12.68.35,1.3.7,1.73.56.78,1.65,1.12,2.58,1.12.74,0,1.67-.21,2.17-.6.45-.33.56-.76.56-1.14,0-.37-.14-.72-.43-.97-.31-.27-.7-.46-1.24-.62l-2.6-.76c-1.05-.29-2-.7-2.68-1.3-.83-.7-1.2-1.75-1.2-2.71,0-1.53.99-2.85,2.27-3.43,1.01-.46,2.02-.54,2.95-.54.95.02,2,.17,2.93.68,1.18.64,2.11,1.75,2.66,3.16l-2.68.72Z"/>
        <path class="cls-43" d="M244.85,188.06v2.33h-2.64v-2.33h2.64ZM244.85,191.84v10.47h-2.64v-10.47h2.64Z"/>
        <path class="cls-59" d="M263.1,195.94v6.38h-2.68v-6.19c0-.76-.14-1.22-.5-1.63-.33-.37-.83-.56-1.34-.56s-1.01.21-1.34.58c-.41.46-.49.93-.49,1.45v6.34h-2.68v-6.19c0-.76-.14-1.22-.5-1.63-.33-.37-.83-.56-1.34-.56s-1.01.21-1.34.58c-.41.46-.49.93-.49,1.45v6.34h-2.66v-10.47h2.33v1.12c.74-.87,1.86-1.38,3.03-1.38.87,0,1.98.27,2.64.97.19.21.37.43.49.64.74-1.01,1.94-1.61,3.22-1.61.87,0,1.98.27,2.64.97.91.95,1.01,2.04,1.01,3.37Z"/>
        <path class="cls-48" d="M275.8,197.08c0,1.44-.33,2.77-1.22,3.86-.85,1.07-2.23,1.67-3.61,1.67-1.01,0-1.94-.23-2.7-.7v5.06h-2.66v-15.13h2.33v.66c.79-.6,1.82-.95,2.89-.95,1.45,0,2.85.56,3.74,1.67.82,1.03,1.22,2.41,1.22,3.86ZM273,197.08c0-.89-.19-1.71-.56-2.25-.45-.68-1.12-.93-2-.93-.72,0-1.34.23-1.76.74-.5.58-.74,1.49-.74,2.44s.23,1.88.74,2.44c.47.5,1.11.74,1.86.74s1.49-.25,1.94-.93c.37-.54.52-1.36.52-2.25Z"/>
        <path class="cls-46" d="M277.93,202.32v-14.25h2.64v14.25h-2.64Z"/>
        <path class="cls-45" d="M286.11,188.06v2.33h-2.64v-2.33h2.64ZM286.11,191.84v10.47h-2.64v-10.47h2.64Z"/>
        <path class="cls-47" d="M292.66,191.84h2.79v2.04h-2.79v8.44h-2.64v-8.44h-2.17v-2.04h2.17c.04-.79.21-1.88.97-2.7,1.11-1.12,2.75-1.22,4.46-1.05v2.27c-.48-.08-1.07-.1-1.53-.02-1.05.16-1.26.72-1.26,1.49Z"/>
        <path class="cls-54" d="M300.13,188.06v2.33h-2.64v-2.33h2.64ZM300.13,191.84v10.47h-2.64v-10.47h2.64Z"/>
        <path class="cls-53" d="M305.83,199.25c.43.58,1.14.89,1.92.89.62,0,1.11-.16,1.49-.47.39-.31.56-.6.68-.85l2.64.76c-.35.85-1.01,1.67-1.82,2.19-.82.52-1.86.83-2.83.83-1.59,0-3.22-.6-4.17-1.75-.85-1.05-1.28-2.31-1.28-3.65,0-1.51.45-2.91,1.28-3.92.97-1.14,2.46-1.75,4.01-1.75s2.77.5,3.74,1.65c1.05,1.22,1.3,2.79,1.16,4.62h-7.37c.08.52.23,1.03.54,1.43ZM305.85,194.7c-.27.35-.41.7-.5,1.09h4.67c-.04-.43-.16-.81-.43-1.16-.41-.52-1.12-.78-1.84-.78-.68,0-1.38.19-1.9.85Z"/>
        <path class="cls-55" d="M324.43,188.35v13.96h-2.33v-.64c-.81.62-1.86.93-3.03.93-1.38,0-2.75-.6-3.61-1.67-.89-1.09-1.22-2.42-1.22-3.86s.41-2.83,1.22-3.86c.89-1.11,2.29-1.67,3.74-1.67.93,0,1.82.27,2.56.72v-3.92h2.66ZM322.1,197.08c0-.95-.23-1.86-.74-2.44-.43-.5-1.05-.74-1.77-.74-.87,0-1.55.25-2,.93-.37.54-.56,1.36-.56,2.25s.16,1.71.52,2.25c.45.68,1.2.93,1.94.93s1.4-.23,1.86-.74c.5-.56.74-1.49.74-2.44Z"/>
      </g>
    </g>
  </g>
</svg>